# xmcd
#
# Track frame offsets: 
#        150
#        16400
#        26765
#        42940
#        56997
#        71197
#        85212
#        97850
#        109187
#        121675
#        128490
#        140742
#        152882
#        164085
#        178220
#        194660
#        209245
#        226617
#        239812
#        259785
#
# Disc length: 3620 seconds
#
# Revision: 0
# Processed by: cddbd v1.5.2PL0 Copyright (c) Steve Scherf et al.
# Submitted via: ExactAudioCopyFreeDBPlugin 1.0
#
DISCID=2e0e2214
DTITLE=キング男声合唱団他 - 軍歌メモリアル
DYEAR=1900
DGENRE=Country
TTITLE0=麦と兵隊
TTITLE1=あゝ大黄河
TTITLE2=月下の吟詠
TTITLE3=父よあなたは強かった
TTITLE4=国境の春
TTITLE5=蘇州夜曲
TTITLE6=九段の母
TTITLE7=愛馬進軍歌
TTITLE8=紀元二千六百年
TTITLE9=隣組
TTITLE10=満州娘
TTITLE11=大陸行進曲
TTITLE12=海行く日本
TTITLE13=上海の花売娘
TTITLE14=あゝ草枕幾度ぞ
TTITLE15=男なら
TTITLE16=暁に祈る
TTITLE17=ほんとにほんとに御苦労ね
TTITLE18=軍国舞扇
TTITLE19=梅と兵隊
EXTD=
EXTT0=
EXTT1=
EXTT2=
EXTT3=
EXTT4=
EXTT5=
EXTT6=
EXTT7=
EXTT8=
EXTT9=
EXTT10=
EXTT11=
EXTT12=
EXTT13=
EXTT14=
EXTT15=
EXTT16=
EXTT17=
EXTT18=
EXTT19=
PLAYORDER=
